HIERARCHY
ROOT Hips
{
  OFFSET -5.94999 91.1956 141.109
  CHANNELS 6 Xposition Yposition Zposition Zrotation Xrotation Yrotation
  JOINT Spine
  {
    OFFSET 0 11.8905 0
    CHANNELS 3 Zrotation Xrotation Yrotation
    JOINT Spine1
    {
      OFFSET 0 25.6574 0.127663
      CHANNELS 3 Zrotation Xrotation Yrotation
      JOINT HEad
      {
        OFFSET 0 8.73416 0.011341
        CHANNELS 3 Zrotation Xrotation Yrotation
        End Site
        {
          OFFSET -0.29 12.7742 2.51395
        }
      }
      JOINT LeftShoulder1
      {
        OFFSET 8.99 -0.362252 -0.22
        CHANNELS 3 Zrotation Xrotation Yrotation
        JOINT LeftArm
        {
          OFFSET 10.2827 -0.00338 0.322123
          CHANNELS 3 Zrotation Xrotation Yrotation
          JOINT LeftForeArm
          {
            OFFSET 32.7669 0.099144 -1.42434
            CHANNELS 3 Zrotation Xrotation Yrotation
            JOINT LeftHand
            {
              OFFSET 27.5643 0.085362 1.02216
              CHANNELS 3 Zrotation Xrotation Yrotation
              End Site
              {
                OFFSET 16.7443 -0.6 1.50291
              }
            }
          }
        }
      }
      JOINT RightShoulder
      {
        OFFSET -8.99 -0.362252 -0.22
        CHANNELS 3 Zrotation Xrotation Yrotation
        JOINT RightArm
        {
          OFFSET -10.2827 -0.00338 0.322123
          CHANNELS 3 Zrotation Xrotation Yrotation
          JOINT RightForeArm
          {
            OFFSET -32.8971 0.099144 -1.42434
            CHANNELS 3 Zrotation Xrotation Yrotation
            JOINT RightHand
            {
              OFFSET -27.4921 0.085362 1.02216
              CHANNELS 3 Zrotation Xrotation Yrotation
              End Site
              {
                OFFSET -16.6312 -0.6 1.50291
              }
            }
          }
        }
      }
    }
  }
  JOINT RightUpLeg
  {
    OFFSET -8.9458 -8.66707 0.101652
    CHANNELS 3 Zrotation Xrotation Yrotation
    JOINT RightLeg
    {
      OFFSET 0 -44.4227 1.3727
      CHANNELS 3 Zrotation Xrotation Yrotation
      JOINT RightFoot
      {
        OFFSET 0.253549 -42.0924 -1.46059
        CHANNELS 3 Zrotation Xrotation Yrotation
        JOINT RightToes
        {
          OFFSET 0.04 -4.41509 8.4991
          CHANNELS 3 Zrotation Xrotation Yrotation
          End Site
          {
            OFFSET -0.08 -0.137448 9.77979
          }
        }
      }
    }
  }
  JOINT LeftUpLeg
  {
    OFFSET 8.9458 -8.66707 0.101652
    CHANNELS 3 Zrotation Xrotation Yrotation
    JOINT LeftLeg
    {
      OFFSET 0 -44.4227 1.3727
      CHANNELS 3 Zrotation Xrotation Yrotation
      JOINT LeftFoot
      {
        OFFSET -0.253549 -42.0924 -1.46059
        CHANNELS 3 Zrotation Xrotation Yrotation
        JOINT LeftToes
        {
          OFFSET -0.04 -4.41509 8.4991
          CHANNELS 3 Zrotation Xrotation Yrotation
          End Site
          {
            OFFSET 0.08 -0.047448 9.77979
          }
        }
      }
    }
  }
}
MOTION
Frames:	12
Frame Time:	0.0166667
-6.96033 93.9073 140.941 -7.61595 3.07269 -98.8331 2.12634 10.5301 -3.08422 -2.37046 20.5806 -5.46398 10.3577 -10.5965 -16.2677 -7.95139e-016 1.09332e-015 -3.18055e-015 -73.3457 -4.1921 -78.7439 25.594 20.7805 -124.173 -8.32003 8.1939 25.8305 25.3462 -1.02346 -6.08257 71.8663 -47.9056 38.573 -16.8015 22.1955 144.853 24.3339 2.57261 -36.5816 -19.9998 -26.7323 0.462965 14.5648 34.1703 -23.1235 21.0475 28.0091 -6.54752 -26.4071 -25.5014 6.20564 31.2302 -3.19178 -5.00434 -13.7385 25.4235 13.2216 2.56431 21.397 -0.792365 47.8785 -45.3048 26.3562 
-6.46423 92.5524 141.104 -8.65552 4.28538 -100.812 2.03392 11.1411 -3.10421 -1.91789 21.7372 -5.56943 9.6477 -11.2838 -14.1214 1.19271e-015 7.95139e-015 -9.54166e-015 -75.7307 -5.84955 -81.5804 26.58 22.7418 -123.87 -9.04035 8.01515 26.3124 25.2343 -0.928688 -5.74858 74.2377 -46.3389 41.4763 -17.4993 23.5023 142.657 23.2918 3.00531 -36.0782 -20.0861 -28.7435 0.377534 15.5001 36.9479 -21.8088 27.1601 33.5839 -9.86566 -32.6383 -31.7184 6.58105 32.4755 -1.64162 -6.24774 -15.175 26.079 19.2508 8.30851 22.8263 -2.36104 53.255 -46.7042 31.4546 
-5.94999 91.1956 141.109 -9.80749 5.70834 -102.874 1.97098 11.7749 -3.15356 -1.2925 22.9547 -5.79196 8.96486 -11.9786 -11.7867 0 9.93923e-016 -0 -78.0244 -7.99932 -83.5091 27.0568 24.0785 -124.342 -9.61456 7.8487 26.9028 25.1123 -0.824948 -5.37986 75.535 -43.991 43.9522 -17.7849 24.4878 140.534 21.9446 3.62146 -35.0813 -19.7873 -30.7463 0.776073 16.4923 39.8498 -19.53 33.6062 37.7949 -13.6274 -37.0628 -36.8286 7.95963 34.2004 0.123323 -7.43111 -16.651 26.8607 24.836 13.2292 24.3396 -3.86492 59.0558 -47.6828 37.1125 
-5.461 89.9152 140.875 -11.0006 7.08682 -104.675 1.95503 12.3681 -3.20595 -0.65246 24.0974 -6.08172 8.45628 -12.495 -9.6801 -1.59028e-015 -1.98785e-015 -3.18055e-015 -79.748 -10.3848 -84.4604 26.7635 24.7298 -125.188 -9.80451 7.76138 27.4224 25.0448 -0.74921 -5.10614 75.7202 -41.4256 45.7316 -17.5478 25.1843 138.813 20.4983 4.30058 -33.757 -19.438 -32.5137 1.42447 17.6734 42.6976 -16.883 38.9472 39.797 -16.6718 -39.2673 -40.5156 10.3389 36.1323 1.81429 -8.26214 -17.9721 27.8036 28.8533 16.4966 25.777 -5.01072 64.2323 -48.1889 42.1906 
-5.05482 88.7992 140.339 -12.1381 8.12199 -105.847 2.0392 12.855 -3.27579 -0.14834 25.0359 -6.35063 8.18842 -12.7487 -8.22275 -7.95139e-016 1.98785e-015 3.18055e-015 -80.4706 -12.6588 -84.4492 25.6427 24.7732 -125.934 -9.39907 7.82458 27.6369 25.1835 -0.762527 -5.13958 74.9609 -39.0987 46.8644 -16.8773 25.5745 137.788 19.2575 4.89689 -32.3713 -19.5164 -33.7946 1.85761 18.8166 45.1715 -14.7063 41.9702 39.9972 -18.1498 -40.4922 -43.1574 12.4196 37.9055 3.16653 -8.65426 -18.8809 28.7418 30.7422 17.9987 26.9637 -5.65655 67.9907 -48.4283 45.7839 
-4.77558 87.9303 139.485 -13.0922 8.58116 -106.154 2.20109 13.1749 -3.36028 0.16717 25.6493 -6.5403 8.11112 -12.7631 -7.67365 2.38542e-015 -1.59028e-015 6.36111e-015 -80.1476 -14.4954 -83.5206 23.9822 24.3447 -126.426 -8.46069 8.03358 27.4475 25.5591 -0.885514 -5.54656 73.493 -37.3552 47.4775 -16.0225 25.5498 137.706 18.5971 5.2578 -31.3088 -20.4355 -34.4403 1.86797 19.8143 46.8967 -13.7841 42.1191 39.1376 -17.88 -41.7896 -44.805 12.8287 39.1489 3.9584 -8.68756 -19.0801 29.4737 30.3966 17.9857 27.6571 -5.76866 69.7048 -48.5162 47.3804 
-4.63394 87.3892 138.312 -13.7252 8.40742 -105.576 2.40803 13.2822 -3.42881 0.372132 25.8505 -6.62903 8.06403 -12.6275 -8.05445 7.95139e-016 -3.57812e-015 -3.18055e-015 -79.1121 -15.6634 -81.7335 22.26 23.5418 -126.881 -7.33642 8.29198 27.045 26.024 -1.08723 -6.21392 71.5705 -36.4047 47.6781 -15.223 24.9603 138.735 18.9563 5.22392 -31.0101 -22.2196 -34.3581 1.64557 20.6379 47.4758 -14.3994 39.6979 37.7783 -16.2705 -42.9259 -44.9926 11.3967 39.6626 4.13658 -8.57328 -18.367 29.7248 28.0331 16.6886 27.7094 -5.36821 68.9559 -48.4381 46.7429 
-4.60347 87.2281 136.814 -13.9526 7.70645 -104.27 2.6457 13.1691 -3.44693 0.578703 25.6319 -6.6015 7.86717 -12.4574 -9.21262 1.59028e-015 -3.57812e-015 -0 -77.8061 -16.119 -79.1626 20.911 22.3782 -127.616 -6.46536 8.48794 26.7062 26.344 -1.3026 -6.93338 69.4473 -36.2431 47.5566 -14.5667 23.6308 140.881 20.8215 4.61629 -31.7631 -24.4289 -33.4723 1.62115 21.0171 46.6248 -16.0564 35.8006 36.2626 -14.0685 -42.7375 -43.3203 9.24533 39.4897 3.8668 -8.60411 -16.7675 29.1519 24.1237 14.1173 27.0727 -4.47636 65.6013 -48.0969 43.7794 
-4.63711 87.4303 134.979 -13.7758 6.62876 -102.439 2.86476 12.8608 -3.39775 0.827605 25.0556 -6.45601 7.43396 -12.3551 -10.9467 0 3.97569e-015 -0 -76.5417 -16.0318 -75.9147 20.1273 20.8782 -128.742 -6.1042 8.57209 26.4916 26.3039 -1.45085 -7.46865 67.3304 -36.6894 47.219 -13.9938 21.3723 143.938 24.5866 3.24563 -33.4846 -26.4851 -31.7742 2.1597 20.5091 44.3142 -17.7875 31.9295 34.981 -12.0912 -40.7094 -40.1548 7.50316 38.8422 3.39092 -9.04096 -14.5319 27.5065 19.3028 10.0418 25.642 -3.0915 59.6781 -47.2767 38.4404 
-4.69214 87.8909 132.815 -13.2286 5.29729 -100.174 3.03083 12.3952 -3.30047 1.10058 24.2026 -6.22484 6.80968 -12.3813 -13.0997 -7.95139e-016 -1.59028e-015 3.18055e-015 -75.3342 -15.6065 -72.1657 19.7661 19.1727 -130.058 -6.11594 8.58097 26.3096 25.8011 -1.47796 -7.66414 65.3094 -37.5357 46.8528 -13.3826 18.1001 147.501 30.2471 1.03423 -35.6281 -28.0666 -29.3893 3.32648 18.9996 40.8556 -18.7867 29.3629 34.2588 -10.8812 -37.7113 -36.486 6.29523 38.0217 2.82662 -9.94572 -11.9456 24.7284 14.2948 4.2578 23.4107 -1.30845 51.6475 -45.6437 31.0044 
-4.73694 88.4358 130.378 -12.329 3.83794 -97.4464 3.24791 11.8185 -3.18764 1.38156 23.1561 -5.93134 6.13226 -12.566 -15.6131 -7.95139e-016 -4.96962e-015 1.59028e-015 -73.9997 -14.8785 -68.2425 19.5416 17.4844 -131.223 -6.13835 8.58658 26.1483 24.8556 -1.38915 -7.5264 63.5102 -38.8692 46.8088 -12.5984 14.2021 151.07 37.1513 -1.74983 -37.3518 -29.1923 -26.6174 4.96672 17.0372 36.9294 -18.8242 28.5985 33.797 -10.4663 -34.9677 -33.2178 5.17374 37.3435 2.13382 -11.0639 -9.19417 20.8783 9.78709 -3.04732 20.8281 0.613922 42.6253 -42.8626 22.4829 
-4.7337 88.8873 127.794 -11.1171 2.37994 -94.2614 3.69737 11.1746 -3.04265 1.65583 21.997 -5.54435 5.53652 -12.9303 -18.5327 -1.59028e-015 -4.57205e-015 3.18055e-015 -72.4998 -13.794 -64.6167 19.2627 16.093 -131.987 -5.97899 8.62484 26.0193 23.4872 -1.2176 -7.1393 62.4675 -41.4449 47.6215 -11.5462 10.9469 154.176 44.062 -4.41419 -38.0031 -30.0633 -23.9328 6.80827 15.4871 33.5277 -18.234 29.1119 32.5944 -10.3489 -33.1168 -30.8165 3.9202 36.9786 1.21122 -11.9121 -6.51085 16.1717 6.30571 -11.0941 18.6013 2.41032 33.8627 -38.7008 14.4254 
